<?xml version="1.0" standalone="no"?>
<!DOCTYPE svg PUBLIC "-//W3C//DTD SVG 1.1//EN" "http://www.w3.org/Graphics/SVG/1.1/DTD/svg11.dtd" >
<svg xmlns="http://www.w3.org/2000/svg">
<metadata>Generated by IcoMoon</metadata>
<defs>
<font id="icomoon" horiz-adv-x="1024">
<font-face units-per-em="1024" ascent="1024" descent="0" />
<missing-glyph horiz-adv-x="1024" />
<glyph unicode="&#x20;" horiz-adv-x="0" d="" />
<glyph unicode="&#xe900;" glyph-name="LOGO" d="M498.347 116.053c-10.24 10.24-20.48 23.893-34.133 54.613l-98.987 211.627c13.653 3.413 40.96 10.24 85.333 27.307s68.267 27.307 81.92 30.72c64.853 34.133 98.987 75.093 98.987 126.293 0 58.027-40.96 85.333-126.293 85.333h-375.467l-112.64-112.64c-13.653-13.653-13.653-40.96 0-54.613l146.773-150.187 92.16 245.76h180.907l-139.947-385.707 187.733-187.733c13.653-13.653 37.547-6.827 54.613 6.827l75.093 88.747h-54.613c-27.307 0-47.787 0-61.44 13.653zM1013.76 546.133l-467.627 467.627c-13.653 13.653-37.547 3.413-54.613-10.24l-238.933-252.587h324.267c180.907 0 269.653-44.373 269.653-157.013 0-95.573-92.16-170.667-279.893-242.347l88.747-180.907h34.133l320.853 324.267c17.067 13.653 17.067 34.133 3.413 51.2zM747.52 102.4c27.307 0 47.787 0 68.267 13.653s34.133 20.48 34.133 54.613h-160.427l-75.093-68.267h133.12zM78.507 102.4h177.493l40.96 105.813-133.12 136.533zM78.507 750.933l-78.507-102.4h129.707l122.88 102.4z" />
<glyph unicode="&#xe901;" glyph-name="login" d="M716.8 512l-307.2 256v-153.6h-358.4v-204.8h358.4v-153.6l307.2 256zM870.4 153.6h-409.6v-102.4h409.6c56.32 0 102.4 46.080 102.4 102.4v716.8c0 56.32-46.080 102.4-102.4 102.4h-409.6v-102.4h409.6v-716.8z" />
<glyph unicode="&#xe902;" glyph-name="edit-copy" d="M307.2 716.8v204.8c0 56.32 46.080 102.4 102.4 102.4h512c56.554 0 102.4-45.846 102.4-102.4v0-512c0-56.554-45.846-102.4-102.4-102.4v0h-204.8v-204.8c0-56.554-45.846-102.4-102.4-102.4v0h-512c-56.554 0-102.4 45.846-102.4 102.4v0 512c0 56.32 46.080 102.4 102.4 102.4h204.8zM409.6 716.8h204.8c56.554 0 102.4-45.846 102.4-102.4v0-204.8h204.8v512h-512v-204.8zM102.4 614.4v-512h512v512h-512z" />
<glyph unicode="&#xe903;" glyph-name="enter, signin, login2" d="M384 512h-320v128h320v128l192-192-192-192zM1024 1024v-832l-384-192v192h-384v256h64v-192h320v576l256 128h-576v-256h-64v320z" />
<glyph unicode="&#xe904;" glyph-name="info, information" d="M448 720c0 26.4 21.6 48 48 48h32c26.4 0 48-21.6 48-48v-32c0-26.4-21.6-48-48-48h-32c-26.4 0-48 21.6-48 48v32zM640 256h-256v64h64v192h-64v64h192v-256h64zM512 1024c-282.77 0-512-229.23-512-512s229.23-512 512-512 512 229.23 512 512-229.23 512-512 512zM512 96c-229.75 0-416 186.25-416 416s186.25 416 416 416 416-186.25 416-416-186.25-416-416-416z" />
<glyph unicode="&#xe905;" glyph-name="question, help2, support" d="M448 320h128v-128h-128zM704 768c35.346 0 64-28.654 64-64v-192l-192-128h-128v64l192 128v64h-320v128h384zM512 928c-111.118 0-215.584-43.272-294.156-121.844s-121.844-183.038-121.844-294.156c0-111.118 43.272-215.584 121.844-294.156s183.038-121.844 294.156-121.844c111.118 0 215.584 43.272 294.156 121.844s121.844 183.038 121.844 294.156c0 111.118-43.272 215.584-121.844 294.156s-183.038 121.844-294.156 121.844zM512 1024v0c282.77 0 512-229.23 512-512s-229.23-512-512-512c-282.77 0-512 229.23-512 512s229.23 512 512 512z" />
<glyph unicode="&#xe906;" glyph-name="books, library, archive" horiz-adv-x="1152" d="M224 896h-192c-17.6 0-32-14.4-32-32v-704c0-17.6 14.4-32 32-32h192c17.6 0 32 14.4 32 32v704c0 17.6-14.4 32-32 32zM192 704h-128v64h128v-64zM544 896h-192c-17.6 0-32-14.4-32-32v-704c0-17.6 14.4-32 32-32h192c17.6 0 32 14.4 32 32v704c0 17.6-14.4 32-32 32zM512 704h-128v64h128v-64zM765.088 846.52l-171.464-86.394c-15.716-7.918-22.096-27.258-14.178-42.976l287.978-571.548c7.918-15.718 27.258-22.098 42.976-14.178l171.464 86.392c15.716 7.92 22.096 27.26 14.178 42.974l-287.978 571.55c-7.92 15.718-27.26 22.1-42.976 14.18z" />
<glyph unicode="&#xe907;" glyph-name="broadcast, transmit, inform, report" d="M192 640h128v-256h-128v256zM704 896v-768h128v768h-128zM448 256h128v512h-128v-512z" />
<glyph unicode="&#xe908;" glyph-name="adjust, edit, calibrate, adapt" d="M832 768v-128h-128v-128h-128v128h-384v128h384v128h128v-128h128zM448 512h-128v-128h-128v-128h128v-128h128v128h384v128h-384v128z" />
<glyph unicode="&#xe909;" glyph-name="search" d="M682.976 430.208l135.776 135.776-362.048 362.016-362.048-362.048 362.048-362.048 135.776 135.776 181.024-181.024 90.496 90.528-181.024 181.024zM456.704 384.928l-181.024 181.024 181.024 181.024 181.024-181.024-181.024-181.024z" />
<glyph unicode="&#xe90a;" glyph-name="explore" d="M928 256v-128h-384v128h64v192h-192v-192h64v-128h-384v128h64v512h64v128h128v-128h64v-64h192v64h64v128h128v-128h64v-512h64z" />
<glyph unicode="&#xe90b;" glyph-name="question-mark, help" horiz-adv-x="512" d="M179.2 64c0 35.346 28.654 64 64 64s64-28.654 64-64c0-35.346-28.654-64-64-64s-64 28.654-64 64zM245.632 192.736c-42.752 0-82.88 16.64-113.12 46.88s-46.88 70.368-46.88 113.12 16.64 82.88 46.88 113.12l214.016 214.016c24.224 24.192 37.472 56.32 37.472 90.496s-13.248 66.304-37.504 90.496c-49.888 49.92-131.072 50.016-180.928 0-24.256-24.192-37.568-56.288-37.568-90.496h-128c0 68.384 26.688 132.704 75.136 181.088 96.64 96.736 265.12 96.672 361.888-0.064 48.352-48.288 74.976-112.576 74.976-181.024 0-68.384-26.624-132.64-75.008-180.992l-213.984-214.016c-12.448-12.512-12.448-32.736 0-45.248 12.512-12.512 32.736-12.512 45.248 0 8.128 8.128 9.376 17.76 9.376 22.624h128c0-42.752-16.64-82.88-46.88-113.12s-70.368-46.88-113.12-46.88v0z" />
<glyph unicode="&#xe90c;" glyph-name="read-more, more" d="M1024 896h-1024v128h1024zM640 640h-640v128h640zM1024 384h-1024v128h1024zM0 64c0 35.346 28.654 64 64 64s64-28.654 64-64c0-35.346-28.654-64-64-64s-64 28.654-64 64zM512 64c0 35.346 28.654 64 64 64s64-28.654 64-64c0-35.346-28.654-64-64-64s-64 28.654-64 64zM256 64c0 35.346 28.654 64 64 64s64-28.654 64-64c0-35.346-28.654-64-64-64s-64 28.654-64 64z" />
<glyph unicode="&#xe90d;" glyph-name="book-alt2, read" d="M512 832c0 0-128 128-512 128v-768c388 0 512-128 512-128s124 128 512 128v768c-384 0-512-128-512-128zM128 832c162.688-13.632 262.496-51.264 320-81.76v-515.488c-57.504 30.368-157.312 68-320 81.76v515.488zM896 316.512c-162.752-13.76-262.496-51.328-320-81.76v515.488c57.504 30.496 157.248 68.128 320 81.76v-515.488z" />
<glyph unicode="&#xe90e;" glyph-name="magnifying-glass" d="M644.256 1024c-209.248 0-379.52-170.24-379.52-379.616 0-50.112 10.24-97.632 27.872-141.376l-292.608-292.64 210.24-210.368 292.736 292.864c43.744-17.76 91.264-28 141.248-28 209.376 0 379.744 170.24 379.744 379.456 0.032 209.44-170.336 379.68-379.712 379.68zM644.256 392.736c-138.624 0-251.616 112.992-251.616 251.584 0 138.752 112.992 251.744 251.616 251.744 138.88 0 251.872-112.992 251.872-251.744 0-138.56-112.992-251.584-251.872-251.584z" />
<glyph unicode="&#xe90f;" glyph-name="search2" d="M1014.88 97.504c12.192-12.192 12.192-31.968 0-44.192l-44.192-44.192c-12.224-12.192-32-12.192-44.192 0l-309.376 309.376c-3.36 3.36-5.6 7.328-7.104 11.552-63.456-46.368-141.376-74.048-226.016-74.048-212.064 0-384 171.936-384 384s171.936 384 384 384c212.064 0 384-171.936 384-384 0-84.64-27.68-162.56-74.048-226.016 4.224-1.504 8.192-3.712 11.552-7.104l309.376-309.376zM384 896c-141.376 0-256-114.624-256-256s114.624-256 256-256 256 114.624 256 256c0 141.376-114.624 256-256 256z" />
<glyph unicode="&#xe910;" glyph-name="diary" d="M896 320h-64c-70.688 0-128 57.312-128 128s57.312 128 128 128h64c70.688 0 128-57.312 128-128s-57.312-128-128-128zM896 512h-64c-35.328 0-64-28.672-64-64s28.672-64 64-64h64c35.328 0 64 28.672 64 64s-28.672 64-64 64zM640 448c0-2.752 0.672-5.28 0.8-8-0.128-2.688-0.8-5.248-0.8-8 0-33.664 12.032-64.192 31.36-88.704 34.272-52.48 93.312-87.296 160.64-87.296h128v-128c0-35.328-28.672-64-64-64h-832c-35.328 0-64 28.672-64 64v720c0 50.336 33.44 92.448 79.2 106.528 4.928 3.168 10.496 5.472 16.8 5.472h832c17.696 0 32-14.304 32-32s-14.304-32-32-32h-832c-17.696 0-32-14.304-32-32v-32h832c35.328 0 64-28.672 64-64v-128h-128c-106.016 0-192-85.984-192-192zM80 128h800c8.832 0 16 7.168 16 16s-7.168 16-16 16h-800c-8.832 0-16-7.168-16-16s7.168-16 16-16zM896 752c0 8.832-7.168 16-16 16h-800c-8.832 0-16-7.168-16-16s7.168-16 16-16h800c8.832 0 16 7.168 16 16z" />
<glyph unicode="&#xe911;" glyph-name="sign-in" horiz-adv-x="878" d="M676.571 512c0-9.714-4-18.857-10.857-25.714l-310.857-310.857c-6.857-6.857-16-10.857-25.714-10.857-20 0-36.571 16.571-36.571 36.571v164.571h-256c-20 0-36.571 16.571-36.571 36.571v219.429c0 20 16.571 36.571 36.571 36.571h256v164.571c0 20 16.571 36.571 36.571 36.571 9.714 0 18.857-4 25.714-10.857l310.857-310.857c6.857-6.857 10.857-16 10.857-25.714zM877.714 713.143v-402.286c0-90.857-73.714-164.571-164.571-164.571h-182.857c-9.714 0-18.286 8.571-18.286 18.286 0 16-7.429 54.857 18.286 54.857h182.857c50.286 0 91.429 41.143 91.429 91.429v402.286c0 50.286-41.143 91.429-91.429 91.429h-164.571c-14.286 0-36.571-2.857-36.571 18.286 0 16-7.429 54.857 18.286 54.857h182.857c90.857 0 164.571-73.714 164.571-164.571z" />
<glyph unicode="&#xe912;" glyph-name="credit-card-alt" horiz-adv-x="1317" d="M0 164.571v347.429h1316.571v-347.429c0-50.286-41.143-91.429-91.429-91.429h-1133.714c-50.286 0-91.429 41.143-91.429 91.429zM365.714 292.571v-73.143h219.429v73.143h-219.429zM146.286 292.571v-73.143h146.286v73.143h-146.286zM1225.143 950.857c50.286 0 91.429-41.143 91.429-91.429v-128h-1316.571v128c0 50.286 41.143 91.429 91.429 91.429h1133.714z" />
<glyph unicode="&#xe913;" glyph-name="ruler, pencil, design" d="M193.856 805.28l21.952-21.952-89.856-89.856 70.016-70.016 90.272 90.272 20.512-20.512-90.272-90.304 69.12-69.088 205.312 205.312-249.984 248.512-204.576-204.576 67.648-67.68 89.856 89.888zM739.168 490.912l-205.312-205.344 69.088-69.088 90.304 90.272 20.512-20.512-90.272-90.272 70.016-70.016 89.824 89.856 21.952-21.952-89.824-89.856 67.616-67.648 204.608 204.608-248.512 249.952zM954.304 753.568c24.992 25.024 25.184 65.44 0.384 90.272l-112.384 112.352c-24.8 24.8-65.248 24.672-90.24-0.384l-69.44-69.44 202.24-202.24 69.44 69.44zM108.736 193.856l83.936-83.936 169.088 60.064-192.96 192.96-60.064-169.088zM660.8 865.824l-476.32-476.352 203.808-203.808 476.352 476.352-203.84 203.808zM277.024 389.888l383.392 383.392 22.336-22.336-383.424-383.424-22.304 22.368zM321.696 345.184l383.36 383.392 22.336-22.336-383.392-383.36-22.304 22.304zM366.368 300.544l383.392 383.392 22.304-22.336-383.36-383.392-22.336 22.336zM62.528 63.68l98.112 35.744-62.368 62.368-35.744-98.112z" />
<glyph unicode="&#xe914;" glyph-name="edit2, pencil2, write, writing, save" d="M341.792 441.376l-70.688-181.44 178.304 73.824-107.616 107.616zM859.36 828.896l-22.624 22.624c-24.96 24.992-65.504 24.992-90.496 0l-45.248-45.248 113.12-113.152 45.248 45.248c25.024 24.992 25.024 65.536 0 90.528zM345.376 450.624l16.192 16.192 113.12-113.12 316.8 316.8-113.12 113.12 22.624 22.656-355.616-355.648zM736.128 191.872l-544.832-0.192 0.096 544.832 381.472 0.128 59.776 63.36h-473.76c-17.664 0-32-14.304-32-32v-608c0-17.696 14.336-32 32-32h608c17.696 0 32 14.304 32 32v449.856l-64.48-63.264 1.728-354.72z" />
<glyph unicode="&#xe915;" glyph-name="magnifier" d="M932.992 65.248l-22.688-22.688c-25.12-25.088-65.76-25.088-90.816 0l-181.632 181.568c-20.992 21.056-23.328 52.608-8.992 77.184l-99.328 99.264c-53.408-39.616-119.296-63.328-190.88-63.328-177.28 0-320.992 143.712-320.992 320.992 0 177.312 143.712 321.024 320.992 321.024 177.312 0 320.992-143.712 320.992-321.024 0-82.528-31.36-157.536-82.56-214.4l97.12-97.12c24.576 14.304 56.128 12 77.12-9.056l181.632-181.568c25.088-25.12 25.088-65.792 0.032-90.848zM578.816 659.552c0 132.96-107.808 240.736-240.768 240.736s-240.768-107.744-240.768-240.736 107.776-240.736 240.736-240.736 240.8 107.776 240.8 240.736z" />
<glyph unicode="&#xe916;" glyph-name="search3" d="M640 1023.84c-212.064 0-384-171.936-384-384 0-64.832 16.224-125.856 44.64-179.456l-267.008-266.944 0.224-0.192c-20.864-20.512-33.856-48.928-33.856-80.512 0-62.368 50.56-112.928 112.928-112.928 31.52 0 59.968 12.992 80.48 33.888l-0.064 0.064 266.912 266.88c53.632-28.512 114.752-44.8 179.744-44.8 212.064 0 384 171.936 384 384s-171.936 384-384 384zM153.44 73.696c-10.304-10.688-24.576-17.376-40.512-17.376-31.2 0-56.48 25.248-56.48 56.448 0 15.936 6.72 30.176 17.376 40.512l-0.288 0.256 258.112 258.112c22.56-30.432 49.44-57.312 79.808-79.936l-258.016-258.016zM640 319.808c-176.704 0-320 143.328-320 320 0 176.704 143.296 320 320 320 176.672 0 320-143.296 320-320 0-176.672-143.328-320-320-320zM640 863.84c8.8 0 16-7.168 16-16s-7.2-16-16-16c-106.048 0-192-85.984-192-192 0-8.832-7.168-16-16-16s-16 7.168-16 16c0 123.712 100.256 224 224 224z" />
<glyph unicode="&#xe917;" glyph-name="document-file-key" d="M672 192v-64.082c0-35.408-28.617-63.918-63.918-63.918h-480.165c-35.408 0-63.918 28.759-63.918 64.235v735.531c0 35.488 28.776 64.235 64.273 64.235h319.727v-192.061c0-35.565 28.739-63.939 64.189-63.939h159.811v-64h-287.781c-53.14 0-96.219-42.952-96.219-95.961v-224.078c0-52.998 42.752-95.961 96.219-95.961h287.781zM480 928v-191.906c0-17.725 14.431-32.094 31.705-32.094h160.295l-192 224zM383.826 576c-35.25 0-63.826-28.806-63.826-63.745v-224.511c0-35.205 28.875-63.745 63.826-63.745h544.348c35.25 0 63.826 28.806 63.826 63.745v224.511c0 35.205-28.875 63.745-63.826 63.745h-544.348zM608 384v-64h128v-32h-160v224h160v-32h-128v-64h96v-32h-96zM416 374.4v-86.4h-32v224h32v-86.4l86.398 86.4h41.602l-112-112 112-112h-41.602l-86.398 86.4zM864 384v-96h-32v96l-64 96v32h32v-32l48-72 48 72v32h32v-32l-64-96z" />
<glyph unicode="&#xe918;" glyph-name="search4" d="M621.668 370.332c-44.476-31.692-98.895-50.332-157.668-50.332-150.221 0-272 121.779-272 272s121.779 272 272 272c150.221 0 272-121.779 272-272 0-58.773-18.641-113.192-50.332-157.668l178.714-178.714c17.606-17.606 17.46-45.778-0.006-63.244l-0.75-0.75c-17.421-17.421-45.781-17.469-63.244-0.006l-178.714 178.714zM464 384c114.875 0 208 93.125 208 208s-93.125 208-208 208c-114.875 0-208-93.125-208-208s93.125-208 208-208v0z" />
<glyph unicode="&#xe919;" glyph-name="youtube_searched_for" d="M726 426l212-212-62-64-214 214v32l-12 12c-48-42-112-66-180-66-52 0-100 14-142 38l64 62c24-10 50-16 78-16 106 0 192 86 192 192s-86 192-192 192-192-86-192-192h148l-176-170-164 170h106c0 150 124 278 278 278s278-124 278-278c0-70-26-132-68-180l12-12h34z" />
<glyph unicode="&#xe91a;" glyph-name="arrow-down" d="M426.624 768v-384h-192l277.333-277.077 277.333 277.077h-192v386.005c0 46.080-38.144 83.328-85.333 83.328-47.232 0-85.333-39.253-85.333-85.333z" />
<glyph unicode="&#xe91b;" glyph-name="book" d="M379.435 983.979l-183.936-135.68-24.832 5.035v-725.333l554.667-128v725.333l-418.048 97.877 90.453 70.144 412.928-82.688v-341.333h42.667v419.584l-473.899 95.061z" />
<glyph unicode="&#xe91c;" glyph-name="download" d="M640 554.667v469.333h-213.333v-469.333h-168.661l271.488-271.531 271.488 271.531zM860.16 725.333h-134.827v-85.333h134.827c23.509 0 35.84-0.683 35.84-24.149v-320c0-35.328-21.931-82.517-57.173-82.517h-653.568c-35.243 0-57.173 47.189-57.173 82.517v320c0 23.467 12.331 24.149 35.84 24.149h134.827v85.333h-134.827c-70.571 0-121.173-38.912-121.173-109.483v-469.333c0-70.571 50.603-146.517 121.173-146.517h696.235c70.571 0 121.173 75.904 121.173 146.517v469.333c0 70.571-50.603 109.483-121.173 109.483zM896 146.517c0-23.509-12.331-61.184-35.84-61.184h-696.235c-23.509 0-35.84 37.675-35.84 61.184v64.555c0-13.525 33.067-40.363 57.173-40.363h653.568c24.064 0 57.173 26.837 57.173 40.363v-64.555z" />
<glyph unicode="&#xe91d;" glyph-name="search5" d="M33.835 120.832l60.331-60.331 187.093 187.093-58.752 61.909-188.672-188.672zM602.667 981.333c-209.067 0-378.667-169.557-378.667-378.667 0-81.877 26.325-157.44 70.485-219.435l71.253-75.093c64.896-52.352 147.072-84.181 236.928-84.181 209.152 0 378.667 169.557 378.667 378.667s-169.515 378.709-378.667 378.709zM602.667 309.333c-161.749 0-293.333 131.584-293.333 293.333s131.584 293.333 293.333 293.333 293.333-131.584 293.333-293.333-131.584-293.333-293.333-293.333z" />
<glyph unicode="&#xe91e;" glyph-name="enter2" d="M520.491 530.517l-179.157 179.157v-112.341h-298.667v-128h298.667v-118.016l179.157 179.2zM384 981.333v-143.659l85.333-85.333v143.659h345.131l-259.797-85.333v-512h-85.333v9.984l-85.333-85.333v-9.984h170.667v-170.667l384 128v810.667z" />
<glyph unicode="&#xe91f;" glyph-name="book2" d="M424.363 624.512c-72.235 55.851-160.213 115.029-298.667 126.251l298.667-126.251zM424.363 496.512c-72.235 55.851-160.213 115.029-298.667 126.251l298.667-126.251zM296.32 450.091c-47.573 22.315-103.083 39.211-170.624 44.672l170.624-44.672zM556.971 624.512l298.667 126.251c-138.453-11.221-226.432-70.443-298.667-126.251zM556.971 496.512l298.667 126.251c-138.453-11.221-226.432-70.443-298.667-126.251zM855.637 494.763c-67.541-5.461-123.051-22.315-170.624-44.672l170.624 44.672zM940.971 1008.512c-186.88 0-357.931-87.253-444.373-156.331h-11.819c-86.485 69.077-257.536 156.331-444.416 156.331h-40.363v-810.667h40.363c138.069 0 291.115-53.163 359.168-104.491 20.224-15.317 38.699-31.317 54.955-47.616l34.176-31.36h4.011l34.176 31.36c16.256 16.299 34.731 32.299 54.955 47.616 68.053 51.328 221.099 104.491 359.168 104.491h40.363v810.667h-40.363zM469.333 148.437c0 4.352-10.411 8.747-16.043 13.013-71.381 53.803-239.957 110.763-367.957 120.32v639.659c170.667-13.056 309.888-95.957 370.389-156.245l11.563-12.672h2.048v-604.075zM896 281.771c-128-9.557-296.576-66.517-367.957-120.32-5.632-4.267-16.043-8.704-16.043-13.013v604.075h2.091l11.563 12.672c60.459 60.288 199.68 143.189 370.347 156.245v-639.659z" />
<glyph unicode="&#xe920;" glyph-name="creditcards" d="M938.667 725.333h-85.333v25.173c0 46.976-38.229 102.827-85.333 102.827h-682.667c-47.104 0-85.333-55.851-85.333-102.827v-384c0-47.104 38.229-67.84 85.333-67.84h42.667v-102.827c0-47.104 38.229-67.84 85.333-67.84h725.333c47.104 0 85.333 20.736 85.333 67.84v426.667c0 46.976-38.229 102.827-85.333 102.827zM128 384h-42.667v170.667h42.667v-170.667zM139.861 682.667h-54.528v85.333h682.667v-42.667h-554.667c-31.403 0-58.667-42.667-73.472-42.667zM213.333 213.333v426.667h725.333l0.085-426.667h-725.419zM682.667 341.333h213.333v170.667h-213.333v-170.667zM725.333 469.333h128v-85.333h-128v85.333zM341.333 256h170.667v42.667h-170.667v-42.667zM256 512h298.667v85.333h-298.667v-85.333zM554.752 256h42.496v42.667h-42.496v-42.667zM256 256h42.496v42.667h-42.496v-42.667z" />
<glyph unicode="&#xe921;" glyph-name="download2" d="M966.583 597.335c-0.917 21.378-2.836 43.298-5.113 65.652-15.865 154.999-139.525 282.148-293.86 301.401-166.503 20.782-312.528-79.584-363.371-224.818-6.389 0.542-12.809 0.987-19.337 0.987-124.884 0-228.098-101.881-228.098-227.001v-56.635c0-30.978 27.004-56.204 57.927-56.204h1.14c30.896 0 54.482 26.56 54.482 57.524v44.692c-6.556 67.524 48.482 124.34 114.549 124.34 3.305 0 6.556-0.292 9.78-0.569l43.787 0.569c25.698-2.181 49.451 9.044 57.982 33.408l12.279 35.076c29.838 85.252 105.074 149.223 194.898 157.168 139.079 12.322 259.239-104.896 249.963-243.669l-0.19-11.918v-145.776h0.555c1.641-29.618 27.669-53.33 57.621-53.33h1.111c29.509 0 52.064 24.226 54.121 53.33h0.389v145.776h-0.615zM641.803 323.909l-73.209-74.903v206.677c0 31.1-25.086 56.316-56.037 56.316h-1.111c-30.951 0-56.037-25.216-56.037-56.316v-198.050l-7.364 1.18-63.623 63.372c-20.087 19.972-52.203 24.837-75.18 8.322-29.17-20.964-31.589-61.707-7.25-85.947l171.92-171.132c10.613-10.585 25.003-16.546 40.091-16.546 15.061 0 29.449 5.961 40.091 16.546l167.92 170.67c22.142 22.044 22.142 57.76 0 79.81-22.172 22.073-58.068 22.073-80.21 0z" />
<glyph unicode="&#xe922;" glyph-name="LOGO2" d="M498.347 116.053c-10.24 10.24-20.48 23.893-34.133 54.613l-98.987 211.627c13.653 3.413 40.96 10.24 85.333 27.307s68.267 27.307 81.92 30.72c64.853 34.133 98.987 75.093 98.987 126.293 0 58.027-40.96 85.333-126.293 85.333h-375.467l-112.64-112.64c-13.653-13.653-13.653-40.96 0-54.613l146.773-150.187 92.16 245.76h180.907l-139.947-385.707 187.733-187.733c13.653-13.653 37.547-6.827 54.613 6.827l75.093 88.747h-54.613c-27.307 0-47.787 0-61.44 13.653zM1013.76 546.133l-467.627 467.627c-13.653 13.653-37.547 3.413-54.613-10.24l-238.933-252.587h324.267c180.907 0 269.653-44.373 269.653-157.013 0-95.573-92.16-170.667-279.893-242.347l88.747-180.907h34.133l320.853 324.267c17.067 13.653 17.067 34.133 3.413 51.2zM747.52 102.4c27.307 0 47.787 0 68.267 13.653s34.133 20.48 34.133 54.613h-160.427l-75.093-68.267h133.12zM78.507 102.4h177.493l40.96 105.813-133.12 136.533zM78.507 750.933l-78.507-102.4h129.707l122.88 102.4z" />
</font>
</defs>
</svg>
